<?xml version="1.0" encoding="utf-8"?>
<!-- Generator: Adobe Illustrator 28.0.0, SVG Export Plug-In . SVG Version: 6.00 Build 0)  -->
<svg version="1.1" id="Lager_1" xmlns="http://www.w3.org/2000/svg" xmlns:xlink="http://www.w3.org/1999/xlink" x="0px" y="0px"
	 viewBox="0 0 24 24" style="enable-background:new 0 0 24 24;" xml:space="preserve">
<style type="text/css">
	.st0{fill:#FFFFFF;}
</style>
<path class="st0" d="M5,21c-0.5,0-1-0.2-1.4-0.6S3,19.5,3,19v-4h2v4h14V5H5v4H3V5c0-0.5,0.2-1,0.6-1.4S4.5,3,5,3h14
	c0.6,0,1,0.2,1.4,0.6S21,4.4,21,5v14c0,0.5-0.2,1-0.6,1.4S19.6,21,19,21H5z M10.5,17l-1.4-1.4l2.6-2.6H3v-2h8.7L9.1,8.4L10.5,7l5,5
	L10.5,17z"/>
</svg>
