<?xml version="1.0" encoding="utf-8"?>
<!-- Generator: Adobe Illustrator 28.0.0, SVG Export Plug-In . SVG Version: 6.00 Build 0)  -->
<svg version="1.1" id="Lager_1" xmlns="http://www.w3.org/2000/svg" xmlns:xlink="http://www.w3.org/1999/xlink" x="0px" y="0px"
	 viewBox="0 0 24 24" style="enable-background:new 0 0 24 24;" xml:space="preserve">
<style type="text/css">
	.st0{fill:#FFFFFF;}
</style>
<path class="st0" d="M5,22c-0.5,0-1-0.2-1.4-0.6S3,20.5,3,20V6c0-0.5,0.2-1,0.6-1.4C4,4.2,4.5,4,5,4h1V2h2v2h8V2h2v2h1
	c0.6,0,1,0.2,1.4,0.6C20.8,5,21,5.4,21,6v5h-2v-1H5v10h7v2H5z M5,8h14V6H5V8z M5,8V6V8z M14,22v-3.1l5.5-5.5
	c0.2-0.2,0.3-0.3,0.5-0.3c0.2-0.1,0.4-0.1,0.6-0.1c0.2,0,0.4,0,0.6,0.1c0.2,0.1,0.4,0.2,0.5,0.3l0.9,0.9c0.1,0.1,0.2,0.3,0.3,0.5
	c0.1,0.2,0.1,0.4,0.1,0.6c0,0.2,0,0.4-0.1,0.6c-0.1,0.2-0.2,0.4-0.3,0.5L17.1,22H14z M21.5,15.4l-0.9-0.9L21.5,15.4z M15.5,20.5h1
	l3-3L19,17l-0.5-0.5l-3.1,3V20.5z M19,17l-0.5-0.5l0.9,0.9L19,17z"/>
</svg>
