<?xml version="1.0" encoding="UTF-8"?>
<svg id="Lager_1" data-name="Lager 1" xmlns="http://www.w3.org/2000/svg" viewBox="0 0 372.78 352.85">
  <defs>
    <style>
      .cls-1 {
        fill: #236252;
        fill-rule: evenodd;
        stroke-width: 0px;
      }
    </style>
  </defs>
  <path class="cls-1" d="m191.99,262.27l-3.89-16.22,24.09-5.2-8.21,81.36,2.52,4.77-1.67.2,3.77,11.11h-6.72l-4.41,7.95h-21.87l1.67-4.77c2.89-7.23,4.99-8.9,10.1-14.87-1.43-5.08.79-12.49,4.29-20.7,4.78-11.28,4.56-14.53,3.22-25.81-.79-6.6-1.64-12.4-2.89-17.83h0ZM13.9,165.14l6.3,1.78c2.13,5.31,6.66,6.6,13.66,5.68,1.76-.23,3.71-.6,5.81-1.09,5.2-.63,24.7-3.96,28.59-2.56,2.01.72,4.02,2.1,6.08,4.28l7.27,12.78c2.43,3.24,5.2,6.06,8.46,8.1,6.14,3.88,13.08,4.88,21.11,10.22,4.68,3.1,9.55,6.83,14.54,11.11,7.48,15.24,19.04,14.5,24.12,26.84,5.57,13.49,1.89,31.26-.43,45.28-2.34,14.27-5.32,26.15-8.52,37.24l-.67,3.04-5.17,6.26-.27,2.5-7.15,3.39-6.63,12.26h21.47l9.4-7.26h5.96l-3.83-6.89v-1.64l.67-1.12v-3.01l-.88-.23-.46-6.63,1.06-2.12,11.8-40.42,5.57-24.4,4.65-12.63c1-2.07,2.43-3.79,4.41-5.08,4.59-3.04,23.6-5.89,29.93-7.18,17.95-1.06,36.14-1.78,54.66-2.1,9.03-.14,8.61-1,15.24,5.37,3.74,3.59,7.54,8.1,11.41,13.41,3.53,4.62,6.6,9.65,9.76,15.47,10.1,18.6,3.1,41.37-6.69,60.32-1.73,3.39-2.04,3.22-2.22,7.01l-.12,2.38c-2.77.98-5.78,2.35-8.46,3.99-3.92,2.38-5.08,3.42-6.84,7.52-.82,1.89-1.46,3.88-1.92,5.86h21.69l9.4-7.23h6.54l-3.47-6.4v-1.87l1-.34-.12-3.5-1.46-.72-.03-3.93,2.71-7.12,6.42-18.89,4.56-19.95c.73-3.01,1-5.6.91-7.9-.09-3.13-.85-5.68-1.92-7.98-2.46-4.85-4.2-10.19-4.62-16.36-.3-4.34-.43-3.7,2.62-6.72,6.14-3.73,11.28-8.53,15.91-13.87,6.54-7.61,12.23-16.68,15.76-25.9,1.83-4.74,3.41-9.68,3.95-15.19,1.58.92,2.65,2.5,2.59,5.37-1.67,8.7-.94,14.93,2.59,18.32,1.55,2.1,3.29,3.82,5.23,5.2,2.04,1.46,4.32,2.56,6.75,3.3,1.4-6.69-4.9-8.01-3.92-18,1.13-11.54,1.22-20.1-.67-26.1-2.22-10.13-9.34-15.91-20.01-18.43-17.28-24.89-49.37-25.72-87.14-14.04-26.89,8.33-54.93-9.22-83.59-9.96-44.44-1.12-41.03,24.14-64.45,7.9l-15.57-9.22,3.22-11.89,7.42-7.01c-2.8-1.89-5.57-2.78-8.3-2.87-8.43-.32-9.49,4.22-15.09,6.49-2.01.8-4.08,1.06-6.27.8.94-1.67,1.98-3.24,3.35-4.48,5.81-5.34,21.63-15.02,34.19-22.97,9.76-6.17,23.09-13.95,31.06-21.53,4.23-4.02,8.55-10.05,10.13-15.62,1.34-4.74,1.37-10.97,1.76-16.82l4.99-2.93c16.18-.49,30.42-10.28,34.64-24.63,2.07-7.03,1.34-5.51-2.89-1.81-3.04,2.67-6.14,5.05-9.37,6.95-2.98,1.84-2.89-4.54-2.4-9.59.33-3.62,2.13-8.33-2.74-3.01-3.98,4.34-3.62,10.82-5.26,15.68-2.56,7.46-6.17,3.88-7.42-.57-1.06-3.85-1.46-8.67-3.41-11.11-1.83-2.24-4.23-4.16-4.53-.17-.4,5.23,4.81,18.78.21,22.39-3.56,2.78-12.17-.66-15.6,3.1-1.19,1.29-1.06,3.3.76,6.17,1.83,4.91,5.23,11.25,3.19,16.34-1.64,4.11-16.12,14.79-20.14,17.66-6.6,4.74-13.66,9.1-20.96,13.26-1.4.78-2.43,1.03-3.07.66-.52-.32-.73-1.15-.52-2.53l.94-6.12c.85-5.54,1.22-7.9.79-13.49-2.62-4.39-2.25-7.12-1-10.16,1.16-2.78,5.69-4.65,9.61-5.71,11.38-3.04,13.87-10.39,7.15-8.35-5.44,1.67-6.66,4.88-16.03,4.13-2.71-.2-4.96-1.29-6.78-2.9-2.98-2.04-6.78-6.46-8.06-2.27-.3.98-.3,2.01-.09,3.07,2.04,1.67,5.81,3.47,6.05,6.14-1.37.26-2.8.2-4.26-.03-2.86-.46-5.87-1.67-8.85-2.87l-14.81-7.67c-4.14-2.15-3.47-.89-1.31,2.84,2.31,3.99,6.24,6.23,9.98,8.93l12.08,8.73c2.25,1.84,4.08,3.82,5.05,6.12,3.35,7.87,2.22,18.89.21,26.73-1.49,5.8-3.13,7.41-5.44,6.34-5.48-2.53-15.33-4.13-26.61-7.12-4.78-1.26-11.95-5.48-15.63-7.84-4.08-2.58-1.86,2.99.88,4.74l6.36,4.05c-1.28.43-2.46.34-3.44.57-2.83.72-20.01-10.34-21.29-10.48,6.45,20.96,46.48,14.47,51.25,21.76.73,1.12.67,2.18-.58,3.3l-14.69,9.22c-1.61.55-3.38,1.15-5.26.89-7.91-1.09-30.2-7.15-38.99-7.9,1.25,1.69,2.77,3.3,4.84,4.65,1.98,1.29,8.06,2.99,7.42,5.43-.79,3.04-12.68,1.95-15.21,1.61-6.45-.86-12.5-2.78-18.43-5.02,1.19,2.41,2.95,4.62,5.99,6.37,4.59,2.64,13.38,4.28,18.74,4.54,16.52.78,15.51-7.32,25.92-5.71,2.77.43,5.63,1.41,7.67,2.99l-21.99,21.1-24.33,12.83c-1.43,3.22-.64,6,1.92,8.44h0Zm312.78,84.55l18.04-17.54c3.74,15.79,9.22,25.21,15.33,32.38,4.53,16.88,1.19,37.49-1.28,57.65l.85,4.97,2.07,3.62-2.43-.03,3.32,7.32-6.05.26-2.31,7.41h-21.63l1.67-4.77c2.89-7.23,5.84-10.34,10.95-16.34-.73-2.61-.4-3.9.52-7.55,2.92-11.46,3.5-29.6-1.4-40.6-4.35-9.76-11.38-18.92-17.64-26.79h0Z"/>
</svg>