<?xml version="1.0" encoding="UTF-8"?>
<svg id="Lager_1" data-name="Lager 1" xmlns="http://www.w3.org/2000/svg" viewBox="0 0 359.87 201.85">
  <defs>
    <style>
      .cls-1, .cls-2 {
        fill: #f8f8f8;
        stroke-width: 0px;
      }

      .cls-2 {
        fill-rule: evenodd;
      }
    </style>
  </defs>
  <path class="cls-2" d="m245.2,96.39l-1.43-5.96,8.85-1.91-3.02,29.9.93,1.75-.61.07,1.39,4.08h-2.47l-1.62,2.92h-8.04l.61-1.75c1.06-2.66,1.83-3.27,3.71-5.46-.53-1.87.29-4.59,1.58-7.61,1.75-4.15,1.68-5.34,1.18-9.48-.29-2.43-.6-4.56-1.06-6.55h0Zm-65.44-35.69l2.31.65c.78,1.95,2.45,2.43,5.02,2.09.65-.08,1.36-.22,2.13-.4,1.91-.23,9.08-1.46,10.51-.94.74.26,1.48.77,2.24,1.57l2.67,4.69c.89,1.19,1.91,2.23,3.11,2.98,2.26,1.42,4.81,1.79,7.76,3.76,1.72,1.14,3.51,2.51,5.34,4.08,2.75,5.6,7,5.33,8.86,9.86,2.05,4.96.69,11.49-.16,16.64-.86,5.24-1.96,9.61-3.13,13.68l-.25,1.12-1.9,2.3-.1.92-2.63,1.24-2.44,4.5h7.89l3.45-2.67h2.19l-1.41-2.53v-.6l.25-.41v-1.11l-.32-.08-.17-2.44.39-.78,4.34-14.85,2.05-8.97,1.71-4.64c.37-.76.89-1.39,1.62-1.87,1.69-1.12,8.67-2.16,11-2.64,6.59-.39,13.28-.65,20.09-.77,3.32-.05,3.16-.37,5.6,1.97,1.37,1.32,2.77,2.98,4.19,4.93,1.3,1.7,2.43,3.54,3.59,5.69,3.71,6.84,1.14,15.2-2.46,22.17-.64,1.24-.75,1.18-.82,2.57l-.04.88c-1.02.36-2.12.87-3.11,1.47-1.44.88-1.87,1.26-2.51,2.76-.3.7-.54,1.42-.7,2.15h7.97l3.45-2.66h2.4l-1.27-2.35v-.69l.37-.13-.04-1.29-.54-.26v-1.45l.98-2.62,2.36-6.94,1.68-7.33c.27-1.11.37-2.06.34-2.9-.03-1.15-.31-2.09-.7-2.93-.91-1.78-1.54-3.75-1.7-6.01-.11-1.59-.16-1.36.96-2.47,2.26-1.37,4.15-3.13,5.85-5.1,2.4-2.8,4.49-6.13,5.79-9.52.67-1.74,1.25-3.56,1.45-5.58.58.34.97.92.95,1.97-.61,3.2-.35,5.49.95,6.73.57.77,1.21,1.4,1.92,1.91.75.54,1.59.94,2.48,1.21.51-2.46-1.8-2.94-1.44-6.61.41-4.24.45-7.38-.25-9.59-.82-3.72-3.43-5.84-7.35-6.77-6.35-9.15-18.14-9.45-32.02-5.16-9.88,3.06-20.19-3.39-30.72-3.66-16.33-.41-15.08,8.87-23.68,2.9l-5.72-3.39,1.18-4.37,2.73-2.57c-1.03-.7-2.05-1.02-3.05-1.05-3.1-.12-3.49,1.55-5.54,2.38-.74.3-1.5.39-2.3.3.35-.61.73-1.19,1.23-1.65,2.13-1.96,7.95-5.52,12.56-8.44,3.59-2.27,8.48-5.13,11.41-7.91,1.55-1.48,3.14-3.69,3.72-5.74.49-1.74.5-4.03.65-6.18l1.83-1.08c5.95-.18,11.18-3.78,12.73-9.05.76-2.58.49-2.03-1.06-.66-1.12.98-2.26,1.86-3.44,2.55-1.1.68-1.06-1.67-.88-3.52.12-1.33.78-3.06-1.01-1.11-1.46,1.59-1.33,3.98-1.93,5.76-.94,2.74-2.27,1.42-2.73-.21-.39-1.41-.54-3.19-1.25-4.08-.67-.82-1.55-1.53-1.67-.06-.15,1.92,1.77,6.9.08,8.23-1.31,1.02-4.47-.24-5.73,1.14-.44.47-.39,1.21.28,2.27.67,1.8,1.92,4.14,1.17,6-.6,1.51-5.92,5.43-7.4,6.49-2.43,1.74-5.02,3.34-7.7,4.87-.51.28-.89.38-1.13.24-.19-.12-.27-.42-.19-.93l.35-2.25c.31-2.04.45-2.9.29-4.96-.96-1.61-.83-2.62-.37-3.73.42-1.02,2.09-1.71,3.53-2.1,4.18-1.12,5.1-3.82,2.63-3.07-2,.61-2.45,1.79-5.89,1.52-.99-.07-1.82-.47-2.49-1.07-1.1-.75-2.49-2.37-2.96-.83-.11.36-.11.74-.03,1.13.75.61,2.13,1.28,2.22,2.26-.5.09-1.03.07-1.56-.01-1.05-.17-2.16-.61-3.25-1.05l-5.44-2.82c-1.52-.79-1.27-.33-.48,1.04.85,1.47,2.29,2.29,3.67,3.28l4.44,3.21c.83.68,1.5,1.4,1.86,2.25,1.23,2.89.82,6.94.08,9.82-.55,2.13-1.15,2.72-2,2.33-2.01-.93-5.63-1.52-9.78-2.62-1.75-.46-4.39-2.02-5.75-2.88-1.5-.95-.68,1.1.32,1.74l2.34,1.49c-.47.16-.91.13-1.26.21-1.04.26-7.35-3.8-7.82-3.85,2.37,7.7,17.08,5.32,18.83,8,.27.41.25.8-.21,1.21l-5.4,3.39c-.59.2-1.24.42-1.93.33-2.91-.4-11.1-2.63-14.33-2.9.46.62,1.02,1.21,1.78,1.71.73.47,2.96,1.1,2.73,1.99-.29,1.12-4.66.72-5.59.59-2.37-.32-4.59-1.02-6.77-1.85.44.89,1.08,1.7,2.2,2.34,1.69.97,4.92,1.57,6.89,1.67,6.07.28,5.7-2.69,9.52-2.1,1.02.16,2.07.52,2.82,1.1l-8.08,7.75-8.94,4.72c-.53,1.18-.23,2.2.7,3.1h-.06Zm114.94,31.07l6.63-6.45c1.37,5.8,3.39,9.26,5.63,11.9,1.67,6.2.44,13.78-.47,21.18l.31,1.83.76,1.33h-.89l1.22,2.68-2.22.09-.85,2.72h-7.95l.61-1.75c1.06-2.66,2.15-3.8,4.02-6-.27-.96-.15-1.43.19-2.77,1.07-4.21,1.29-10.88-.51-14.92-1.6-3.59-4.18-6.95-6.48-9.84h0Z"/>
  <g>
    <path class="cls-1" d="m25.76,108.34l15.54-35.54c.66-1.45.99-2.53.99-3.23,0-.89-.68-1.5-2.04-1.83v-1.12h10.88v1.12c-1.1.33-1.86.76-2.27,1.3s-1.18,2.1-2.3,4.68l-15.48,34.88c-.59,1.38-.88,2.38-.88,2.99,0,.98.67,1.62,2,1.9v1.12h-13.37v-1.12c1.34-.28,2-.94,2-1.97,0-.56-.3-1.53-.91-2.92l-15.76-35.93c-.87-1.95-1.51-3.18-1.94-3.69-.42-.52-1.16-.93-2.22-1.23v-1.12h11.48v1.12c-1.38.33-2.08.94-2.08,1.83,0,.8.31,1.88.92,3.23l15.44,35.54h0Z"/>
    <path class="cls-1" d="m85.7,101.13h-25.67l-4.22,9.11c-.4.87-.6,1.48-.6,1.83,0,.7.69,1.17,2.08,1.41v1.12h-10.71v-1.12c.96-.16,1.69-.52,2.2-1.05.5-.54,1.17-1.71,1.99-3.52l17.58-37.93c.42-.91.63-1.53.63-1.86,0-.61-.57-1.07-1.72-1.37v-1.12h11.67v1.12c-1.15.38-1.72.87-1.72,1.48,0,.26.21.84.63,1.76l16.84,36.56c1.24,2.7,2.06,4.28,2.46,4.75s1.27.87,2.6,1.2v1.12h-11.39v-1.12c1.36-.19,2.04-.7,2.04-1.55,0-.37-.26-1.1-.77-2.18l-3.93-8.61v-.03Zm-2.03-4.57l-10.81-23.71-10.79,23.71h21.6Zm-10.54-44.75c1.95,0,3.59.57,4.92,1.72,1.34,1.17,2,2.58,2,4.22s-.68,2.97-2.04,4.13-2.98,1.74-4.85,1.74-3.52-.59-4.85-1.76c-1.36-1.15-2.04-2.54-2.04-4.18s.66-3.02,1.97-4.15c1.31-1.12,2.94-1.7,4.89-1.72Zm.04,2.85c-1.01,0-1.85.29-2.53.86s-1.02,1.31-1.02,2.2c0,.84.35,1.56,1.04,2.16s1.53.9,2.51.9,1.79-.3,2.5-.9,1.05-1.31,1.05-2.13c0-.89-.33-1.63-1-2.21-.67-.59-1.52-.88-2.55-.88Z"/>
    <path class="cls-1" d="m112.51,93.01v17.44c0,.96.15,1.64.46,2.05.3.41.9.73,1.79.97v1.12h-10.02v-1.12c.89-.23,1.49-.55,1.79-.95.3-.4.46-1.09.46-2.07v-39.69c0-.98-.15-1.68-.46-2.09-.3-.41-.9-.72-1.79-.93v-1.12h26.33c3.61,0,6.46.19,8.56.58,2.1.39,3.92,1.06,5.47,2.02,1.59.99,2.88,2.34,3.87,4.05,1.12,1.95,1.69,4.14,1.69,6.58,0,3.66-1.21,6.65-3.64,8.96s-5.76,3.63-10,3.96l12.2,18.95c.73,1.17,1.78,1.75,3.16,1.75v1.12h-11.11v-1.12c1.15-.19,1.72-.51,1.72-.98,0-.23-.41-.99-1.23-2.28l-10.9-17.2s-18.35,0-18.35,0Zm0-4.57h19.44c2.65,0,4.65-.11,5.99-.33,1.35-.22,2.54-.63,3.57-1.21,2.41-1.41,3.62-3.76,3.62-7.07s-1.24-5.7-3.73-7.1c-1.1-.61-2.33-1.02-3.67-1.23-1.35-.21-3.44-.32-6.28-.32h-18.95v17.26h0Z"/>
    <path class="cls-1" d="m12.8,182.58v14.27c0,.96.15,1.65.46,2.06.3.41.9.73,1.79.97v1.12H5.03v-1.12c.89-.23,1.49-.55,1.79-.95.3-.4.46-1.09.46-2.07v-39.69c0-.98-.15-1.68-.46-2.09-.3-.41-.9-.72-1.79-.93v-1.12h10.02v1.12c-.89.23-1.49.55-1.79.95s-.46,1.09-.46,2.08v19.94l25.9-20.26c.91-.7,1.37-1.28,1.37-1.72,0-.52-.44-.84-1.33-.98v-1.12h12.67v1.12c-1.41.09-2.79.67-4.15,1.72l-19.5,15.12,21.47,27.17c.52.66,1,1.1,1.44,1.32s1.12.36,2.04.4v1.12h-11.71v-1.12c1.01-.23,1.51-.57,1.51-1.02,0-.28-.52-1.09-1.55-2.43l-17.37-22.21-10.79,8.36h0Z"/>
    <path class="cls-1" d="m82.69,152.17c8.46,0,15.28,2.21,20.46,6.64,2.91,2.46,5.09,5.47,6.54,9.04,1.2,2.93,1.79,6.08,1.79,9.46,0,4.57-1.3,8.85-3.9,12.83-2.86,4.41-6.83,7.58-11.92,9.53-3.8,1.45-8.1,2.18-12.9,2.18-8.41,0-15.2-2.21-20.36-6.64-2.88-2.48-5.06-5.5-6.54-9.04-1.2-2.91-1.79-5.96-1.79-9.18,0-4.76,1.29-9.14,3.87-13.15,2.81-4.34,6.8-7.5,11.95-9.49,3.61-1.38,7.88-2.11,12.8-2.18h0Zm0,4.82c-7.2,0-12.89,2.02-17.09,6.05-3.84,3.7-5.77,8.36-5.77,13.96s1.92,10.29,5.77,13.99c4.17,4.03,9.89,6.05,17.16,6.05s13.03-2.02,17.23-6.05c3.82-3.7,5.73-8.27,5.73-13.71,0-5.88-1.91-10.63-5.73-14.24-2.3-2.16-4.76-3.67-7.38-4.54-2.91-.98-6.21-1.49-9.91-1.51h-.01Z"/>
    <path class="cls-1" d="m148.28,201l-20.2-40.35v36.2c0,.96.15,1.65.46,2.06.3.41.9.73,1.79.97v1.12h-9.49v-1.12c.89-.23,1.49-.55,1.79-.95s.46-1.09.46-2.07v-39.69c0-.98-.15-1.68-.46-2.09-.3-.41-.9-.72-1.79-.93v-1.12h12.42v1.12c-1.15.4-1.72.89-1.72,1.48,0,.28.39,1.18,1.16,2.71l15.99,31.63,16.06-31.92c.56-1.12.84-1.92.84-2.39,0-.61-.57-1.11-1.72-1.51v-1.12h12.56v1.12c-.89.23-1.49.55-1.79.95-.3.4-.46,1.09-.46,2.07v39.69c0,.96.15,1.65.46,2.06.3.41.9.73,1.79.97v1.12h-10.02v-1.12c.91-.23,1.52-.55,1.81-.95s.44-1.09.44-2.08v-36.2l-20.37,40.35h-.01Z"/>
    <path class="cls-1" d="m214.37,201l-20.2-40.35v36.2c0,.96.15,1.65.46,2.06s.9.73,1.79.97v1.12h-9.49v-1.12c.89-.23,1.49-.55,1.79-.95.3-.4.46-1.09.46-2.07v-39.69c0-.98-.15-1.68-.46-2.09-.3-.41-.9-.72-1.79-.93v-1.12h12.42v1.12c-1.15.4-1.72.89-1.72,1.48,0,.28.39,1.18,1.16,2.71l15.99,31.63,16.06-31.92c.56-1.12.84-1.92.84-2.39,0-.61-.58-1.11-1.72-1.51v-1.12h12.56v1.12c-.89.23-1.49.55-1.79.95-.3.4-.46,1.09-.46,2.07v39.69c0,.96.15,1.65.46,2.06.3.41.9.73,1.79.97v1.12h-10.02v-1.12c.91-.23,1.52-.55,1.81-.95s.44-1.09.44-2.08v-36.2l-20.37,40.35h0Z"/>
    <path class="cls-1" d="m259.85,157.16v26.54c0,3.14.16,5.35.49,6.63s1.01,2.39,2.04,3.32c2.51,2.25,7.18,3.38,14.03,3.38,7.45,0,12.34-1.32,14.66-3.97.77-.89,1.29-1.95,1.55-3.18s.39-3.29.39-6.17v-26.54c0-.96-.15-1.65-.46-2.06-.3-.41-.9-.73-1.79-.97v-1.12h9.53v1.12c-.89.21-1.49.52-1.79.93-.3.41-.46,1.11-.46,2.09v27.63c0,3.4-.33,5.99-.98,7.77-1.22,3.19-3.51,5.53-6.87,7.03s-8.02,2.25-13.97,2.25c-8.91,0-15-1.72-18.28-5.17-1.34-1.38-2.27-2.96-2.79-4.73-.53-1.77-.79-4.15-.79-7.15v-27.63c0-.98-.15-1.68-.46-2.09-.3-.41-.9-.72-1.79-.93v-1.12h10.02v1.12c-.89.23-1.49.56-1.79.97-.3.41-.46,1.1-.46,2.06h-.03Z"/>
    <path class="cls-1" d="m317.15,159.09v37.76c0,.96.15,1.65.46,2.06.3.41.9.73,1.79.97v1.12h-9.53v-1.12c.91-.23,1.52-.55,1.81-.95s.44-1.09.44-2.07v-39.69c0-.98-.15-1.68-.46-2.09-.3-.41-.9-.72-1.79-.93v-1.12h13.79v1.12c-1.1.38-1.65.9-1.65,1.58,0,.47.55,1.35,1.65,2.64l28.93,33.82v-35.02c0-.98-.15-1.68-.46-2.09-.3-.41-.9-.72-1.79-.93v-1.12h9.53v1.12c-.89.21-1.49.52-1.79.93-.3.41-.46,1.11-.46,2.09v39.69c0,.98.15,1.68.46,2.07.3.4.9.72,1.79.95v1.12h-11.08v-1.12c1.08-.28,1.62-.76,1.62-1.44,0-.52-.49-1.36-1.48-2.53l-31.78-36.81h0Z"/>
  </g>
</svg>